<svg id="visual" viewBox="0 0 960 540" width="960" height="540" xmlns="http://www.w3.org/2000/svg" xmlns:xlink="http://www.w3.org/1999/xlink" version="1.1"><path d="M0 355L22.8 373.5C45.7 392 91.3 429 137 436.7C182.7 444.3 228.3 422.7 274 421.8C319.7 421 365.3 441 411.2 433.3C457 425.7 503 390.3 548.8 371.2C594.7 352 640.3 349 686 356.3C731.7 363.7 777.3 381.3 823 386.8C868.7 392.3 914.3 385.7 937.2 382.3L960 379L960 541L937.2 541C914.3 541 868.7 541 823 541C777.3 541 731.7 541 686 541C640.3 541 594.7 541 548.8 541C503 541 457 541 411.2 541C365.3 541 319.7 541 274 541C228.3 541 182.7 541 137 541C91.3 541 45.7 541 22.8 541L0 541Z" fill="#fff0e3" stroke-linecap="round" stroke-linejoin="miter"></path></svg>
